<svg width="21" height="18" viewBox="0 0 21 18" fill="none" xmlns="http://www.w3.org/2000/svg">
<path d="M0.46875 17.125V12.4688C0.46875 11.1146 0.729167 9.71875 1.25 8.28125C1.77083 6.84375 2.45833 5.48958 3.3125 4.21875C4.16667 2.92708 5.10417 1.83333 6.125 0.9375L10.3125 3.375C9.5625 4.625 8.91667 5.96875 8.375 7.40625C7.83333 8.84375 7.5625 10.5312 7.5625 12.4688V17.125H0.46875ZM11.0938 17.125V12.4688C11.0938 11.1146 11.3542 9.71875 11.875 8.28125C12.3958 6.84375 13.0833 5.48958 13.9375 4.21875C14.7917 2.92708 15.7292 1.83333 16.75 0.9375L20.9375 3.375C20.1875 4.625 19.5417 5.96875 19 7.40625C18.4583 8.84375 18.1875 10.5312 18.1875 12.4688V17.125H11.0938Z" fill="#161616"/>
</svg>
